<mxfile host="app.diagrams.net" agent="Mozilla/5.0 (X11; Linux x86_64) AppleWebKit/537.36 (KHTML, like Gecko) Chrome/127.0.0.0 Safari/537.36 OPR/113.0.0.0" version="24.7.8">
  <diagram name="Page-1" id="uSqe43TGl_vkrGlnib_v">
    <mxGraphModel dx="1780" dy="1178" grid="0" gridSize="10" guides="1" tooltips="1" connect="1" arrows="1" fold="1" page="0" pageScale="1" pageWidth="850" pageHeight="1100" math="0" shadow="0">
      <root>
        <mxCell id="0" />
        <mxCell id="1" parent="0" />
        <mxCell id="Wj5WEDejXmfSupQr25it-28" value="" style="edgeStyle=orthogonalEdgeStyle;rounded=0;orthogonalLoop=1;jettySize=auto;html=1;" edge="1" parent="1" source="Wj5WEDejXmfSupQr25it-1" target="Wj5WEDejXmfSupQr25it-15">
          <mxGeometry relative="1" as="geometry">
            <mxPoint x="-19" y="336" as="targetPoint" />
          </mxGeometry>
        </mxCell>
        <mxCell id="Wj5WEDejXmfSupQr25it-1" value="Client" style="ellipse;whiteSpace=wrap;html=1;aspect=fixed;fillColor=none;strokeColor=default;" vertex="1" parent="1">
          <mxGeometry x="-177" y="296" width="80" height="80" as="geometry" />
        </mxCell>
        <mxCell id="Wj5WEDejXmfSupQr25it-56" style="edgeStyle=orthogonalEdgeStyle;rounded=0;orthogonalLoop=1;jettySize=auto;html=1;exitX=1;exitY=0.75;exitDx=0;exitDy=0;entryX=0;entryY=0.75;entryDx=0;entryDy=0;startArrow=classic;startFill=1;" edge="1" parent="1" source="Wj5WEDejXmfSupQr25it-7" target="Wj5WEDejXmfSupQr25it-55">
          <mxGeometry relative="1" as="geometry">
            <Array as="points">
              <mxPoint x="610" y="240.88" />
              <mxPoint x="808" y="240.88" />
              <mxPoint x="808" y="216.88" />
            </Array>
          </mxGeometry>
        </mxCell>
        <mxCell id="Wj5WEDejXmfSupQr25it-57" style="edgeStyle=orthogonalEdgeStyle;rounded=0;orthogonalLoop=1;jettySize=auto;html=1;exitX=1;exitY=0.75;exitDx=0;exitDy=0;" edge="1" parent="1" source="Wj5WEDejXmfSupQr25it-7">
          <mxGeometry relative="1" as="geometry">
            <mxPoint x="667" y="201.88" as="targetPoint" />
          </mxGeometry>
        </mxCell>
        <mxCell id="Wj5WEDejXmfSupQr25it-7" value="Product" style="rounded=1;whiteSpace=wrap;html=1;labelBackgroundColor=none;labelBorderColor=none;fillColor=#994C00;strokeColor=#d79b00;gradientColor=default;" vertex="1" parent="1">
          <mxGeometry x="490" y="156.88" width="120" height="60" as="geometry" />
        </mxCell>
        <mxCell id="Wj5WEDejXmfSupQr25it-60" value="" style="edgeStyle=orthogonalEdgeStyle;rounded=0;orthogonalLoop=1;jettySize=auto;html=1;" edge="1" parent="1" source="Wj5WEDejXmfSupQr25it-10" target="Wj5WEDejXmfSupQr25it-7">
          <mxGeometry relative="1" as="geometry" />
        </mxCell>
        <mxCell id="Wj5WEDejXmfSupQr25it-67" style="edgeStyle=orthogonalEdgeStyle;rounded=0;orthogonalLoop=1;jettySize=auto;html=1;exitX=0.5;exitY=0;exitDx=0;exitDy=0;" edge="1" parent="1" source="Wj5WEDejXmfSupQr25it-10">
          <mxGeometry relative="1" as="geometry">
            <mxPoint x="547" y="-3" as="targetPoint" />
          </mxGeometry>
        </mxCell>
        <mxCell id="Wj5WEDejXmfSupQr25it-10" value="Order" style="rounded=1;whiteSpace=wrap;html=1;labelBackgroundColor=none;labelBorderColor=none;fillColor=#006600;strokeColor=#82b366;gradientColor=default;" vertex="1" parent="1">
          <mxGeometry x="487" y="66.88" width="120" height="59.12" as="geometry" />
        </mxCell>
        <mxCell id="Wj5WEDejXmfSupQr25it-58" style="edgeStyle=orthogonalEdgeStyle;rounded=0;orthogonalLoop=1;jettySize=auto;html=1;exitX=1;exitY=0.75;exitDx=0;exitDy=0;" edge="1" parent="1" source="Wj5WEDejXmfSupQr25it-11">
          <mxGeometry relative="1" as="geometry">
            <mxPoint x="664" y="306.88" as="targetPoint" />
          </mxGeometry>
        </mxCell>
        <mxCell id="Wj5WEDejXmfSupQr25it-11" value="Cart" style="rounded=1;whiteSpace=wrap;html=1;labelBackgroundColor=none;labelBorderColor=none;fillColor=#006600;strokeColor=#82b366;gradientColor=default;" vertex="1" parent="1">
          <mxGeometry x="490" y="261.88" width="120" height="60" as="geometry" />
        </mxCell>
        <mxCell id="Wj5WEDejXmfSupQr25it-59" style="edgeStyle=orthogonalEdgeStyle;rounded=0;orthogonalLoop=1;jettySize=auto;html=1;exitX=1;exitY=0.75;exitDx=0;exitDy=0;" edge="1" parent="1" source="Wj5WEDejXmfSupQr25it-12">
          <mxGeometry relative="1" as="geometry">
            <mxPoint x="667" y="408.88" as="targetPoint" />
          </mxGeometry>
        </mxCell>
        <mxCell id="Wj5WEDejXmfSupQr25it-12" value="Consumer" style="rounded=1;whiteSpace=wrap;html=1;labelBackgroundColor=none;labelBorderColor=none;fillColor=#006600;strokeColor=#82b366;gradientColor=default;" vertex="1" parent="1">
          <mxGeometry x="493" y="363.38" width="120" height="60" as="geometry" />
        </mxCell>
        <mxCell id="Wj5WEDejXmfSupQr25it-13" value="Discovery" style="rounded=1;whiteSpace=wrap;html=1;labelBackgroundColor=none;labelBorderColor=none;fillColor=#006600;strokeColor=#82b366;gradientColor=default;" vertex="1" parent="1">
          <mxGeometry x="150" y="540" width="120" height="60" as="geometry" />
        </mxCell>
        <mxCell id="Wj5WEDejXmfSupQr25it-14" value="Config" style="rounded=1;whiteSpace=wrap;html=1;labelBackgroundColor=none;labelBorderColor=none;fillColor=#006600;strokeColor=#82b366;gradientColor=default;" vertex="1" parent="1">
          <mxGeometry x="341" y="540" width="120" height="60" as="geometry" />
        </mxCell>
        <mxCell id="Wj5WEDejXmfSupQr25it-15" value="Gateway" style="rounded=1;whiteSpace=wrap;html=1;labelBackgroundColor=none;labelBorderColor=none;fillColor=#994C00;strokeColor=#82b366;gradientColor=default;" vertex="1" parent="1">
          <mxGeometry x="57" y="306" width="120" height="60" as="geometry" />
        </mxCell>
        <mxCell id="Wj5WEDejXmfSupQr25it-65" style="edgeStyle=orthogonalEdgeStyle;rounded=0;orthogonalLoop=1;jettySize=auto;html=1;exitX=1;exitY=0.25;exitDx=0;exitDy=0;startArrow=classic;startFill=1;" edge="1" parent="1" source="Wj5WEDejXmfSupQr25it-16" target="Wj5WEDejXmfSupQr25it-24">
          <mxGeometry relative="1" as="geometry" />
        </mxCell>
        <mxCell id="Wj5WEDejXmfSupQr25it-16" value="Admin" style="rounded=1;whiteSpace=wrap;html=1;labelBackgroundColor=none;labelBorderColor=none;fillColor=#663300;strokeColor=#82b366;gradientColor=default;" vertex="1" parent="1">
          <mxGeometry x="881" y="507" width="120" height="60" as="geometry" />
        </mxCell>
        <mxCell id="Wj5WEDejXmfSupQr25it-17" value="Manager" style="rounded=1;whiteSpace=wrap;html=1;labelBackgroundColor=none;labelBorderColor=none;fillColor=#663300;strokeColor=#82b366;gradientColor=default;" vertex="1" parent="1">
          <mxGeometry x="881" y="608" width="120" height="60" as="geometry" />
        </mxCell>
        <mxCell id="Wj5WEDejXmfSupQr25it-18" value="Auth" style="rounded=1;whiteSpace=wrap;html=1;labelBackgroundColor=none;labelBorderColor=none;fillColor=#FF8000;strokeColor=#82b366;gradientColor=#FF3333;" vertex="1" parent="1">
          <mxGeometry x="881" y="711.5" width="120" height="60" as="geometry" />
        </mxCell>
        <mxCell id="Wj5WEDejXmfSupQr25it-19" value="order_db" style="shape=cylinder3;whiteSpace=wrap;html=1;boundedLbl=1;backgroundOutline=1;size=15;fillColor=#dae8fc;strokeColor=#6c8ebf;gradientColor=default;" vertex="1" parent="1">
          <mxGeometry x="724" y="53.879999999999995" width="60" height="80" as="geometry" />
        </mxCell>
        <mxCell id="Wj5WEDejXmfSupQr25it-21" value="product_db" style="shape=cylinder3;whiteSpace=wrap;html=1;boundedLbl=1;backgroundOutline=1;size=15;fillColor=#dae8fc;strokeColor=#6c8ebf;gradientColor=default;" vertex="1" parent="1">
          <mxGeometry x="728" y="146.88" width="60" height="80" as="geometry" />
        </mxCell>
        <mxCell id="Wj5WEDejXmfSupQr25it-22" value="cart_db" style="shape=cylinder3;whiteSpace=wrap;html=1;boundedLbl=1;backgroundOutline=1;size=15;fillColor=#dae8fc;strokeColor=#6c8ebf;gradientColor=default;" vertex="1" parent="1">
          <mxGeometry x="728" y="251.88" width="60" height="80" as="geometry" />
        </mxCell>
        <mxCell id="Wj5WEDejXmfSupQr25it-23" value="&lt;font style=&quot;font-size: 9px;&quot;&gt;consumer_db&lt;/font&gt;" style="shape=cylinder3;whiteSpace=wrap;html=1;boundedLbl=1;backgroundOutline=1;size=15;fillColor=#dae8fc;strokeColor=#6c8ebf;gradientColor=default;" vertex="1" parent="1">
          <mxGeometry x="728" y="353.38" width="60" height="80" as="geometry" />
        </mxCell>
        <mxCell id="Wj5WEDejXmfSupQr25it-24" value="admin_db" style="shape=cylinder3;whiteSpace=wrap;html=1;boundedLbl=1;backgroundOutline=1;size=15;fillColor=#dae8fc;strokeColor=#6c8ebf;gradientColor=default;" vertex="1" parent="1">
          <mxGeometry x="1050" y="482" width="60" height="80" as="geometry" />
        </mxCell>
        <mxCell id="Wj5WEDejXmfSupQr25it-25" value="&lt;font style=&quot;font-size: 9px;&quot;&gt;manager_db&lt;/font&gt;" style="shape=cylinder3;whiteSpace=wrap;html=1;boundedLbl=1;backgroundOutline=1;size=15;fillColor=#dae8fc;strokeColor=#6c8ebf;gradientColor=default;" vertex="1" parent="1">
          <mxGeometry x="1050" y="583" width="60" height="80" as="geometry" />
        </mxCell>
        <mxCell id="Wj5WEDejXmfSupQr25it-29" value="" style="shape=waypoint;sketch=0;size=6;pointerEvents=1;points=[];fillColor=#663300;resizable=0;rotatable=0;perimeter=centerPerimeter;snapToPoint=1;strokeColor=#82b366;rounded=1;labelBackgroundColor=none;labelBorderColor=none;gradientColor=default;" vertex="1" parent="1">
          <mxGeometry x="476" y="86.88" width="20" height="20" as="geometry" />
        </mxCell>
        <mxCell id="Wj5WEDejXmfSupQr25it-32" value="" style="endArrow=classic;startArrow=none;html=1;rounded=0;entryX=0.15;entryY=0.25;entryDx=0;entryDy=0;entryPerimeter=0;startFill=0;" edge="1" parent="1" target="Wj5WEDejXmfSupQr25it-29">
          <mxGeometry width="50" height="50" relative="1" as="geometry">
            <mxPoint x="177" y="336" as="sourcePoint" />
            <mxPoint x="227" y="286" as="targetPoint" />
          </mxGeometry>
        </mxCell>
        <mxCell id="Wj5WEDejXmfSupQr25it-33" value="" style="endArrow=classic;startArrow=none;html=1;rounded=0;entryX=0;entryY=0.5;entryDx=0;entryDy=0;exitX=1;exitY=0.5;exitDx=0;exitDy=0;startFill=0;" edge="1" parent="1" source="Wj5WEDejXmfSupQr25it-15" target="Wj5WEDejXmfSupQr25it-7">
          <mxGeometry width="50" height="50" relative="1" as="geometry">
            <mxPoint x="167" y="273" as="sourcePoint" />
            <mxPoint x="612" y="14" as="targetPoint" />
          </mxGeometry>
        </mxCell>
        <mxCell id="Wj5WEDejXmfSupQr25it-34" value="" style="endArrow=classic;startArrow=none;html=1;rounded=0;entryX=0;entryY=0.5;entryDx=0;entryDy=0;startFill=0;" edge="1" parent="1" target="Wj5WEDejXmfSupQr25it-11">
          <mxGeometry width="50" height="50" relative="1" as="geometry">
            <mxPoint x="179" y="334" as="sourcePoint" />
            <mxPoint x="642" y="97" as="targetPoint" />
          </mxGeometry>
        </mxCell>
        <mxCell id="Wj5WEDejXmfSupQr25it-35" value="" style="endArrow=classic;startArrow=none;html=1;rounded=0;entryX=0;entryY=0.5;entryDx=0;entryDy=0;exitX=1;exitY=0.5;exitDx=0;exitDy=0;startFill=0;" edge="1" parent="1" source="Wj5WEDejXmfSupQr25it-15" target="Wj5WEDejXmfSupQr25it-12">
          <mxGeometry width="50" height="50" relative="1" as="geometry">
            <mxPoint x="207" y="366" as="sourcePoint" />
            <mxPoint x="652" y="107" as="targetPoint" />
          </mxGeometry>
        </mxCell>
        <mxCell id="Wj5WEDejXmfSupQr25it-42" value="" style="endArrow=none;html=1;rounded=0;exitX=0;exitY=0.5;exitDx=0;exitDy=0;startArrow=classic;startFill=1;endFill=0;" edge="1" parent="1" source="Wj5WEDejXmfSupQr25it-13">
          <mxGeometry width="50" height="50" relative="1" as="geometry">
            <mxPoint x="399" y="425" as="sourcePoint" />
            <mxPoint x="111" y="570" as="targetPoint" />
          </mxGeometry>
        </mxCell>
        <mxCell id="Wj5WEDejXmfSupQr25it-43" value="" style="endArrow=none;html=1;rounded=0;exitX=0.5;exitY=1;exitDx=0;exitDy=0;entryX=0.5;entryY=1;entryDx=0;entryDy=0;startArrow=classic;startFill=1;endFill=0;" edge="1" parent="1" source="Wj5WEDejXmfSupQr25it-14" target="Wj5WEDejXmfSupQr25it-15">
          <mxGeometry width="50" height="50" relative="1" as="geometry">
            <mxPoint x="223" y="555" as="sourcePoint" />
            <mxPoint x="160" y="381" as="targetPoint" />
            <Array as="points">
              <mxPoint x="401" y="641" />
              <mxPoint x="112" y="638" />
            </Array>
          </mxGeometry>
        </mxCell>
        <mxCell id="Wj5WEDejXmfSupQr25it-44" value="" style="endArrow=classic;startArrow=classic;html=1;rounded=0;entryX=0;entryY=0;entryDx=0;entryDy=27.5;entryPerimeter=0;exitX=1;exitY=0.25;exitDx=0;exitDy=0;" edge="1" parent="1" source="Wj5WEDejXmfSupQr25it-10" target="Wj5WEDejXmfSupQr25it-19">
          <mxGeometry width="50" height="50" relative="1" as="geometry">
            <mxPoint x="633" y="86.88" as="sourcePoint" />
            <mxPoint x="683" y="36.879999999999995" as="targetPoint" />
          </mxGeometry>
        </mxCell>
        <mxCell id="Wj5WEDejXmfSupQr25it-45" value="" style="endArrow=classic;startArrow=classic;html=1;rounded=0;entryX=0;entryY=0;entryDx=0;entryDy=27.5;entryPerimeter=0;" edge="1" parent="1" target="Wj5WEDejXmfSupQr25it-21">
          <mxGeometry width="50" height="50" relative="1" as="geometry">
            <mxPoint x="610" y="176.88" as="sourcePoint" />
            <mxPoint x="660" y="126.88" as="targetPoint" />
          </mxGeometry>
        </mxCell>
        <mxCell id="Wj5WEDejXmfSupQr25it-46" value="" style="endArrow=classic;startArrow=classic;html=1;rounded=0;entryX=0;entryY=0;entryDx=0;entryDy=27.5;entryPerimeter=0;" edge="1" parent="1">
          <mxGeometry width="50" height="50" relative="1" as="geometry">
            <mxPoint x="610" y="281.88" as="sourcePoint" />
            <mxPoint x="728" y="279.88" as="targetPoint" />
          </mxGeometry>
        </mxCell>
        <mxCell id="Wj5WEDejXmfSupQr25it-47" value="" style="endArrow=classic;startArrow=classic;html=1;rounded=0;entryX=0;entryY=0;entryDx=0;entryDy=27.5;entryPerimeter=0;" edge="1" parent="1">
          <mxGeometry width="50" height="50" relative="1" as="geometry">
            <mxPoint x="610" y="382.88" as="sourcePoint" />
            <mxPoint x="728" y="380.88" as="targetPoint" />
          </mxGeometry>
        </mxCell>
        <mxCell id="Wj5WEDejXmfSupQr25it-49" value="" style="endArrow=classic;html=1;rounded=0;edgeStyle=orthogonalEdgeStyle;" edge="1" parent="1">
          <mxGeometry width="50" height="50" relative="1" as="geometry">
            <mxPoint x="607" y="104" as="sourcePoint" />
            <mxPoint x="661" y="748" as="targetPoint" />
            <Array as="points">
              <mxPoint x="607" y="105" />
              <mxPoint x="664" y="105" />
            </Array>
          </mxGeometry>
        </mxCell>
        <mxCell id="Wj5WEDejXmfSupQr25it-53" value="" style="endArrow=classic;html=1;rounded=0;edgeStyle=orthogonalEdgeStyle;entryX=0.75;entryY=1;entryDx=0;entryDy=0;" edge="1" parent="1" target="Wj5WEDejXmfSupQr25it-14">
          <mxGeometry width="50" height="50" relative="1" as="geometry">
            <mxPoint x="666" y="746" as="sourcePoint" />
            <mxPoint x="402" y="739" as="targetPoint" />
          </mxGeometry>
        </mxCell>
        <mxCell id="Wj5WEDejXmfSupQr25it-54" value="" style="endArrow=classic;html=1;rounded=0;entryX=0.75;entryY=1;entryDx=0;entryDy=0;edgeStyle=orthogonalEdgeStyle;" edge="1" parent="1" target="Wj5WEDejXmfSupQr25it-13">
          <mxGeometry width="50" height="50" relative="1" as="geometry">
            <mxPoint x="433" y="745" as="sourcePoint" />
            <mxPoint x="449" y="375" as="targetPoint" />
          </mxGeometry>
        </mxCell>
        <mxCell id="Wj5WEDejXmfSupQr25it-55" value="S3" style="triangle;whiteSpace=wrap;html=1;fillColor=#009999;gradientColor=default;" vertex="1" parent="1">
          <mxGeometry x="839" y="156.88" width="60" height="80" as="geometry" />
        </mxCell>
        <mxCell id="Wj5WEDejXmfSupQr25it-61" value="REST" style="text;html=1;align=center;verticalAlign=middle;resizable=0;points=[];autosize=1;strokeColor=none;fillColor=none;" vertex="1" parent="1">
          <mxGeometry x="275" y="173.88" width="50" height="26" as="geometry" />
        </mxCell>
        <mxCell id="Wj5WEDejXmfSupQr25it-62" value="REST" style="text;html=1;align=center;verticalAlign=middle;resizable=0;points=[];autosize=1;strokeColor=none;fillColor=none;" vertex="1" parent="1">
          <mxGeometry x="411" y="224" width="50" height="26" as="geometry" />
        </mxCell>
        <mxCell id="Wj5WEDejXmfSupQr25it-63" value="REST" style="text;html=1;align=center;verticalAlign=middle;resizable=0;points=[];autosize=1;strokeColor=none;fillColor=none;" vertex="1" parent="1">
          <mxGeometry x="333" y="278.88" width="50" height="26" as="geometry" />
        </mxCell>
        <mxCell id="Wj5WEDejXmfSupQr25it-64" value="REST" style="text;html=1;align=center;verticalAlign=middle;resizable=0;points=[];autosize=1;strokeColor=none;fillColor=none;" vertex="1" parent="1">
          <mxGeometry x="392" y="350" width="50" height="26" as="geometry" />
        </mxCell>
        <mxCell id="Wj5WEDejXmfSupQr25it-66" style="edgeStyle=orthogonalEdgeStyle;rounded=0;orthogonalLoop=1;jettySize=auto;html=1;exitX=1;exitY=0.25;exitDx=0;exitDy=0;entryX=0;entryY=0.5;entryDx=0;entryDy=0;entryPerimeter=0;startArrow=classic;startFill=1;" edge="1" parent="1" source="Wj5WEDejXmfSupQr25it-17" target="Wj5WEDejXmfSupQr25it-25">
          <mxGeometry relative="1" as="geometry" />
        </mxCell>
        <mxCell id="Wj5WEDejXmfSupQr25it-68" value="CFO" style="rounded=1;whiteSpace=wrap;html=1;fillColor=none;" vertex="1" parent="1">
          <mxGeometry x="487" y="-66" width="120" height="60" as="geometry" />
        </mxCell>
        <mxCell id="Wj5WEDejXmfSupQr25it-69" value="REST" style="text;html=1;align=center;verticalAlign=middle;resizable=0;points=[];autosize=1;strokeColor=none;fillColor=none;" vertex="1" parent="1">
          <mxGeometry x="553" y="126" width="50" height="26" as="geometry" />
        </mxCell>
      </root>
    </mxGraphModel>
  </diagram>
</mxfile>
